<svg xmlns="http://www.w3.org/2000/svg" viewBox="0 0 614.22 483.03"><defs><style>.cls-1{fill:#1a129f;}</style></defs><g id="Layer_2" data-name="Layer 2"><g id="Layer_1-2" data-name="Layer 1"><path class="cls-1" d="M614.22,0V394c-6.58,9.19-14.15,21.83-30,40-27.81,31.89-43.46,49.84-61,49-30.91-1.48-31.13-59.59-76-77-19.45-7.54-26.37.67-79,8-68.38,9.52-112.44,15.66-144-8-31.85-23.87-39.57-69.52-41-78-6.33-37.4,7.15-56.05-8-79-8.36-12.67-22-18.62-49-30-55.09-23.24-71.92-14.34-93-33-18.68-16.53-22.67-38.75-29-74C0,88.68-3.83,49.39,7.22,0Z"/></g></g></svg>