<svg xmlns="http://www.w3.org/2000/svg" viewBox="0 0 1367 408.52"><defs><style>.cls-1{fill:blue;stroke:#000;stroke-miterlimit:10;}</style></defs><g id="Layer_2" data-name="Layer 2"><g id="Layer_1-2" data-name="Layer 1"><path class="cls-1" d="M1366.5,319v89H.5V314a729.05,729.05,0,0,1,79-148c26.79-38.67,40.72-58.38,67-77,42.94-30.42,113.84-54.46,177-32,60.07,21.36,57.49,65,129,105,59.26,33.16,117.37,34.71,136,35,53.16.82,93.51-14.59,315-136,54.12-29.66,85-47,110.67-55a114,114,0,0,1,46.33-5,169.13,169.13,0,0,1,28.42,5c46.16,12.12,89.82,42.63,118.58,77,41.91,50.1,28.15,79.66,72,109,17,11.36,46.62,25.36,66,60a149.53,149.53,0,0,1,9,20C1358.47,283.06,1362.87,299.73,1366.5,319Z"/></g></g></svg>