<svg xmlns="http://www.w3.org/2000/svg" viewBox="0 0 1366 519.69"><defs><style>.cls-1{fill:#2e3192;}</style></defs><g id="Layer_2" data-name="Layer 2"><g id="Layer_1-2" data-name="Layer 1"><path class="cls-1" d="M1366,185.83V519.69H0v-186l.5-.46a666.54,666.54,0,0,0,102-80c48.64-46.6,61.06-73.08,115-116,31.77-25.28,51.52-41,84-52,55.6-18.83,104.78-9,130-4,19.78,3.94,66.29,13.71,112,47,28.66,20.88,34.89,34.9,70,55,15.15,8.67,37.2,21.07,67,27,57,11.34,104.06-8.57,121-16,39.51-17.33,30.5-33.24,102-90,26-20.61,48.54-35.86,68-49,42.68-28.83,64-43.24,78-48,70.32-24,143.65,19.1,155,26,19,11.58,46.36,40.05,101,97,22.44,23.39,32.79,35.39,54,51C1361.74,182.84,1363.9,184.38,1366,185.83Z"/></g></g></svg>